<svg id="1f639c02-4426-40af-8fec-059a30611671" data-name="Layer 1" xmlns="http://www.w3.org/2000/svg" viewBox="0 0 2403.01 1645.48"><title>head-dark-face-black</title><path d="M2216.2,429,2368,490.84c15.13,6.17,24.87,21.17,26.1,37.58h.09c7.1,91.27,10,195.16,8.43,301.93-1.5,105.15-7.21,211.83-17.16,310.67-1.76,17.9-13.17,32.12-28,37.2L2173,1260c-20.62,9.13-44.19-1.64-52.63-24.06a47,47,0,0,1-3-19.23h-.1l42-750.29c1.31-24.24,20.47-42.69,42.78-41.21A38,38,0,0,1,2216.2,429Zm99.34,134.17-78.79-32.1L2202,1152.37l105.46-46.76c8.31-90.23,13.11-184.63,14.43-276.5,1.3-92.35-.83-183.29-6.34-265.94Z" style="fill:#1a1a1a"/><path d="M2199.67,469.12l154.18,62.8c14,179.49,11.36,405.75-8.66,604.35l-187.48,83.13,42-750.28Z" style="fill:#484848;fill-rule:evenodd"/><path d="M2213.46,604.11l119.44,40c8.54,127.89,6.38,271.37-7.55,386.53L2179.88,1084l33.58-479.9Z" style="fill:#989898;fill-rule:evenodd"/><path d="M160.51,562.42,82.72,596.89c-3,82.79-2.42,173.73,1.7,266,4.08,91.77,11.73,186,22.79,275.94L214,1182.39l-53.5-620ZM28.11,526.18l150-66.47a37.59,37.59,0,0,1,13.9-4.14c22.24-2.15,42,15.71,44,39.89l64.61,748.68-.1,0a46.88,46.88,0,0,1-2.36,19.3c-7.77,22.66-31,34.15-51.89,25.65L59.39,1212.93c-15-4.67-26.78-18.52-29.07-36.36-12.94-98.5-21.87-204.93-26.54-310C-1,759.9-1.28,656,3.08,564.53h0c.76-16.44,10-31.73,25-38.35Z" style="fill:#1a1a1a"/><path d="M195.69,499.37,43.48,566.82c-8.57,179.83.91,405.89,26.92,603.81l189.91,77.43L195.69,499.37Z" style="fill:#484848;fill-rule:evenodd"/><path d="M186,634.73,67.83,678.28c-4.69,128.1,1.81,271.44,19.22,386.12l147,49L186,634.73Z" style="fill:#989898;fill-rule:evenodd"/><path d="M276.18,163.24c-13.87,257.12-16,496-9.07,720.16,6.85,220.93,22.72,428.62,45.06,626.05,292.61,32,588.73,49.56,888.67,48.22,300.39-1.33,605.69-21.62,916.39-65.28,13.95-214,19.85-433.4,17.07-659.73-2.79-227.28-14.4-463.68-35.48-711q-441.21-43.34-896.17-31.62-456.24,11-926.47,73.17Zm-96.8,722.57c-7.39-237.66-4.67-491,11.11-763.73h0A43.92,43.92,0,0,1,228.5,81Q721.07,14.72,1200.59,2.33q478-11.53,940.33,35.31a44,44,0,0,1,42.47,40.23c23,259.75,35.65,510.38,38.63,753.75,3,242.72-3.75,476-19.44,701.87a44,44,0,0,1-37.68,40.89c-326,47.6-647.14,69.61-963.72,71-316.06,1.41-626.57-17.71-932.19-52.31a44,44,0,0,1-40.17-38.85c-24.57-208.63-42-430.06-49.44-668.44Z" style="fill:#1a1a1a"/><path d="M234.34,124.49c-31.43,543.75-10.89,1008.33,38.17,1424.77,610,69.19,1237.25,76.36,1886.2-18.4,31.36-451.25,26.9-929-19.19-1449.21C1524.63,17.94,888.43,36.53,234.34,124.49Z" style="fill:#484848;fill-rule:evenodd"/><path d="M234.34,124.5c-26.72,462.17-15.88,867.16,18.12,1234C241.41,994.7,241.43,628,283.35,274.22c11.17-94.26-.81-93.67,113.28-118.82C680.93,92.68,983.48,64.08,1292,44.52,945.2,49,592.45,76.34,234.34,124.5Z" style="fill:#989898;fill-rule:evenodd"/><path d="M493.26,322.73c-12.56,194.95-15.19,377-9.84,548.44,5.27,169.1,18.29,328.52,37.16,480.29,220.3,19.41,445.38,30,675.8,28.88a6509.82,6509.82,0,0,0,709.87-42.06c9.12-165.47,12.74-334.19,10.56-507.06-2.2-173.83-10.32-353.66-24.69-540.55q-338.44-32.73-687.22-23.79-350.45,8.44-711.64,55.85ZM397.19,873.52c-5.78-185.35-2.48-381.79,12.23-591.81h0a43.19,43.19,0,0,1,37.32-39.9q383-51.49,756.09-61.16,371.73-9,731.3,27.47a43.24,43.24,0,0,1,41.34,39.81c16.08,199.1,25.14,392.81,27.54,582.28,2.37,188.14-1.92,370.16-12.52,547.24a43.22,43.22,0,0,1-38.17,42.48c-257.69,31-509.41,45.4-755.65,46.63-244.83,1.21-483.55-10.67-716.9-32.2a43.18,43.18,0,0,1-40.4-37.5c-21.57-164.56-36.43-338.1-42.21-523.34Z" style="fill:#1a1a1a"/><path d="M452.52,284.58c-29.29,418.33-13.16,780.13,29.65,1106.7,465.14,43,951.48,47.54,1465.12-14.29,21.33-354.75,17.32-726.76-14.9-1125.67-477.65-49.51-971.8-35.06-1479.87,33.26Z" style="fill:#1a1a1a;fill-rule:evenodd"/><path d="M452.5,284.6c-19,272-18.87,520.15-4.66,750.24,13.78-215.76,10.48-424.93,47.26-614.44,13.22-68.22,39.53-88,136.25-110.2,259.13-59.49,524.08-68.46,793.94-87.78-317.9-3.9-642.39,17.74-972.79,62.18Z" style="fill:#e6e6e5;fill-rule:evenodd"/><polygon points="605.33 908.41 790.31 663.77 815.99 629.8 843.52 662.3 1047.22 902.73 995.21 946.75 819.05 738.82 659.75 949.49 605.33 908.41 605.33 908.41" style="fill:#e6e6e5"/><polygon points="1732.25 928.04 1564.56 723.76 1396.75 938.69 1343.18 896.86 1537.11 648.49 1563.23 615.04 1590.13 647.82 1784.76 884.89 1732.25 928.04 1732.25 928.04" style="fill:#e6e6e5"/><polygon points="998.51 1225.53 1394.27 1220.06 1394.83 1266.45 999.05 1271.92 998.51 1225.53 998.51 1225.53" style="fill:#e6e6e5"/></svg>